<svg id="Component_1_6" data-name="Component 1 – 6" xmlns="http://www.w3.org/2000/svg" width="352" height="107" viewBox="0 0 352 107">
  <text id="L_G_H_T" data-name="L    G H T" fill="#fff" font-size="80" font-family="PlayfairDisplay-Bold, Playfair Display" font-weight="700"><tspan x="0" y="87" xml:space="preserve">L    G H T</tspan></text>
  <path id="Icon_open-lightbulb" data-name="Icon open-lightbulb" d="M26.965.026A3.915,3.915,0,0,0,25.947.5L2.459,12.24A3.915,3.915,0,1,0,5.9,19.13L29.392,7.386A3.915,3.915,0,0,0,26.965.026Zm7.83,11.744a3.915,3.915,0,0,0-1.018.47L2.459,27.9A3.915,3.915,0,1,0,5.9,34.789L37.222,19.13a3.915,3.915,0,0,0-2.427-7.36Zm0,15.659a3.915,3.915,0,0,0-1.018.47L10.288,39.643A3.915,3.915,0,0,0,12.011,47H27.67a3.965,3.965,0,0,0,1.253-7.83l8.3-4.385a3.915,3.915,0,0,0-2.427-7.36Zm-20.044,27.4A3.965,3.965,0,0,0,16,62.662h7.83a3.915,3.915,0,0,0,0-7.83H16a3.915,3.915,0,0,0-.7,0,3.914,3.914,0,0,0-.47,0Z" transform="translate(67.36 26.851)" fill="#fff"/>
</svg>
